<svg xmlns="http://www.w3.org/2000/svg">
  <symbol id="i-home" viewBox="0 0 24 24" fill="none" stroke="currentColor" stroke-width="1.8" stroke-linecap="round" stroke-linejoin="round">
    <path d="M3 11.5 12 4l9 7.5"/>
    <path d="M5.5 10v9a1 1 0 0 0 1 1h11a1 1 0 0 0 1-1v-9"/>
    <path d="M9.5 20v-6h5v6"/>
  </symbol>

  <symbol id="i-users" viewBox="0 0 24 24" fill="none" stroke="currentColor" stroke-width="1.8" stroke-linecap="round" stroke-linejoin="round">
    <circle cx="9" cy="8" r="3.2"/>
    <path d="M3.5 19.5c0-3.3 2.5-5.5 5.5-5.5s5.5 2.2 5.5 5.5"/>
    <path d="M15.5 6.2a3.2 3.2 0 0 1 0 6.1"/>
    <path d="M18 14.3c2 .5 3.5 2.3 3.5 5.2"/>
  </symbol>

  <symbol id="i-eye" viewBox="0 0 24 24" fill="none" stroke="currentColor" stroke-width="1.8" stroke-linecap="round" stroke-linejoin="round">
    <path d="M2 12s3.5-7 10-7 10 7 10 7-3.5 7-10 7-10-7-10-7Z"/>
    <circle cx="12" cy="12" r="3"/>
  </symbol>

  <symbol id="i-clock" viewBox="0 0 24 24" fill="none" stroke="currentColor" stroke-width="1.8" stroke-linecap="round" stroke-linejoin="round">
    <circle cx="12" cy="12" r="9"/>
    <path d="M12 7v5l3.5 2"/>
  </symbol>

  <symbol id="i-grid" viewBox="0 0 24 24" fill="none" stroke="currentColor" stroke-width="1.8" stroke-linecap="round" stroke-linejoin="round">
    <rect x="3.5" y="3.5" width="7" height="7" rx="1.5"/>
    <rect x="13.5" y="3.5" width="7" height="7" rx="1.5"/>
    <rect x="3.5" y="13.5" width="7" height="7" rx="1.5"/>
    <rect x="13.5" y="13.5" width="7" height="7" rx="1.5"/>
  </symbol>

  <symbol id="i-repeat" viewBox="0 0 24 24" fill="none" stroke="currentColor" stroke-width="1.8" stroke-linecap="round" stroke-linejoin="round">
    <path d="M17 2.5 20.5 6 17 9.5"/>
    <path d="M3.5 12V9a3 3 0 0 1 3-3h14"/>
    <path d="M7 21.5 3.5 18 7 14.5"/>
    <path d="M20.5 12v3a3 3 0 0 1-3 3h-14"/>
  </symbol>

  <symbol id="i-calendar" viewBox="0 0 24 24" fill="none" stroke="currentColor" stroke-width="1.8" stroke-linecap="round" stroke-linejoin="round">
    <rect x="3.5" y="5" width="17" height="16" rx="2.5"/>
    <path d="M8 3v4"/>
    <path d="M16 3v4"/>
    <path d="M3.5 10h17"/>
  </symbol>

  <symbol id="i-cap" viewBox="0 0 24 24" fill="none" stroke="currentColor" stroke-width="1.8" stroke-linecap="round" stroke-linejoin="round">
    <path d="M2 9 12 4l10 5-10 5-10-5Z"/>
    <path d="M6 11.5V17c0 1.4 2.7 2.5 6 2.5s6-1.1 6-2.5v-5.5"/>
    <path d="M21 10v6"/>
  </symbol>

  <symbol id="i-layers" viewBox="0 0 24 24" fill="none" stroke="currentColor" stroke-width="1.8" stroke-linecap="round" stroke-linejoin="round">
    <path d="M12 3 21 8l-9 5-9-5Z"/>
    <path d="M3 12l9 5 9-5"/>
    <path d="M3 16l9 5 9-5"/>
  </symbol>

  <symbol id="i-folder" viewBox="0 0 24 24" fill="none" stroke="currentColor" stroke-width="1.8" stroke-linecap="round" stroke-linejoin="round">
    <path d="M3.5 6.5a1.5 1.5 0 0 1 1.5-1.5h4l2 2.5h8a1.5 1.5 0 0 1 1.5 1.5v9a1.5 1.5 0 0 1-1.5 1.5H5a1.5 1.5 0 0 1-1.5-1.5Z"/>
  </symbol>

  <symbol id="i-bulb" viewBox="0 0 24 24" fill="none" stroke="currentColor" stroke-width="1.8" stroke-linecap="round" stroke-linejoin="round">
    <path d="M9 18h6"/>
    <path d="M10 21h4"/>
    <path d="M12 3a6.5 6.5 0 0 0-4 11.6c.6.5 1 1.3 1 2.1V17h6v-.3c0-.8.4-1.6 1-2.1A6.5 6.5 0 0 0 12 3Z"/>
  </symbol>

  <symbol id="i-chart-bar" viewBox="0 0 24 24" fill="none" stroke="currentColor" stroke-width="1.8" stroke-linecap="round" stroke-linejoin="round">
    <path d="M4 20V10"/>
    <path d="M12 20V4"/>
    <path d="M20 20v-7"/>
    <path d="M4 20h16"/>
  </symbol>

  <symbol id="i-settings" viewBox="0 0 24 24" fill="none" stroke="currentColor" stroke-width="1.7" stroke-linecap="round" stroke-linejoin="round">
    <circle cx="12" cy="12" r="3"/>
    <path d="M19.4 13.5a1.7 1.7 0 0 0 .3 1.9l.1.1a2 2 0 1 1-2.8 2.8l-.1-.1a1.7 1.7 0 0 0-1.9-.3 1.7 1.7 0 0 0-1 1.5V19.9a2 2 0 1 1-4 0v-.1a1.7 1.7 0 0 0-1.1-1.6 1.7 1.7 0 0 0-1.9.3l-.1.1a2 2 0 1 1-2.8-2.8l.1-.1a1.7 1.7 0 0 0 .3-1.9 1.7 1.7 0 0 0-1.5-1H3.1a2 2 0 1 1 0-4h.1a1.7 1.7 0 0 0 1.6-1.1 1.7 1.7 0 0 0-.3-1.9l-.1-.1a2 2 0 1 1 2.8-2.8l.1.1a1.7 1.7 0 0 0 1.9.3H9.4a1.7 1.7 0 0 0 1-1.5V3.1a2 2 0 1 1 4 0v.1a1.7 1.7 0 0 0 1 1.5 1.7 1.7 0 0 0 1.9-.3l.1-.1a2 2 0 1 1 2.8 2.8l-.1.1a1.7 1.7 0 0 0-.3 1.9V9.4a1.7 1.7 0 0 0 1.5 1H20.9a2 2 0 1 1 0 4h-.1a1.7 1.7 0 0 0-1.5 1Z"/>
  </symbol>

  <symbol id="i-menu" viewBox="0 0 24 24" fill="none" stroke="currentColor" stroke-width="1.8" stroke-linecap="round" stroke-linejoin="round">
    <path d="M3.5 6.5h17"/>
    <path d="M3.5 12h17"/>
    <path d="M3.5 17.5h17"/>
  </symbol>

  <symbol id="i-link" viewBox="0 0 24 24" fill="none" stroke="currentColor" stroke-width="1.8" stroke-linecap="round" stroke-linejoin="round">
    <path d="M10 14 20 4"/>
    <path d="M14.5 4H20v5.5"/>
    <path d="M18 13v6a1.5 1.5 0 0 1-1.5 1.5H5A1.5 1.5 0 0 1 3.5 19V7.5A1.5 1.5 0 0 1 5 6h6"/>
  </symbol>

  <symbol id="i-check-circle" viewBox="0 0 24 24" fill="none" stroke="currentColor" stroke-width="1.8" stroke-linecap="round" stroke-linejoin="round">
    <circle cx="12" cy="12" r="9"/>
    <path d="M8 12.5 10.8 15.3 16 9.5"/>
  </symbol>

  <symbol id="i-trending-up" viewBox="0 0 24 24" fill="none" stroke="currentColor" stroke-width="1.8" stroke-linecap="round" stroke-linejoin="round">
    <path d="M3 17 9.5 10.5 13.5 14.5 21 6"/>
    <path d="M21 12v-6h-6"/>
  </symbol>

  <symbol id="i-waves" viewBox="0 0 24 24" fill="none" stroke="currentColor" stroke-width="1.8" stroke-linecap="round" stroke-linejoin="round">
    <path d="M2 15c1.5-2 3.5-2 5 0s3.5 2 5 0 3.5-2 5 0 3.5 2 5 0"/>
    <path d="M2 9c1.5-2 3.5-2 5 0s3.5 2 5 0 3.5-2 5 0 3.5 2 5 0"/>
  </symbol>

  <symbol id="i-kanban" viewBox="0 0 24 24" fill="none" stroke="currentColor" stroke-width="1.8" stroke-linecap="round" stroke-linejoin="round">
    <rect x="3.5" y="3.5" width="17" height="17" rx="2"/>
    <path d="M9.5 3.5v17"/>
    <path d="M15 3.5v17"/>
  </symbol>

  <symbol id="i-library" viewBox="0 0 24 24" fill="none" stroke="currentColor" stroke-width="1.8" stroke-linecap="round" stroke-linejoin="round">
    <path d="M4 20.5V5a1.5 1.5 0 0 1 1.5-1.5H10a1.5 1.5 0 0 1 1.5 1.5v15.5"/>
    <path d="M11.5 20.5V7l3-3.3a1.5 1.5 0 0 1 2.3.2l2.6 3.6a1.5 1.5 0 0 1 .3.9v11.1"/>
    <path d="M4 20.5h16"/>
  </symbol>

  <symbol id="i-trash" viewBox="0 0 24 24" fill="none" stroke="currentColor" stroke-width="1.8" stroke-linecap="round" stroke-linejoin="round">
    <path d="M4 7h16"/>
    <path d="M9 7V4.5A1.5 1.5 0 0 1 10.5 3h3A1.5 1.5 0 0 1 15 4.5V7"/>
    <path d="M6 7l1 13a2 2 0 0 0 2 1.8h6a2 2 0 0 0 2-1.8l1-13"/>
  </symbol>

  <symbol id="i-refresh" viewBox="0 0 24 24" fill="none" stroke="currentColor" stroke-width="1.8" stroke-linecap="round" stroke-linejoin="round">
    <path d="M3.5 12a8.5 8.5 0 0 1 14.5-6"/>
    <path d="M20.5 12a8.5 8.5 0 0 1-14.5 6"/>
    <path d="M18 2v4.5h-4.5"/>
    <path d="M6 22v-4.5h4.5"/>
  </symbol>

  <symbol id="i-pencil" viewBox="0 0 24 24" fill="none" stroke="currentColor" stroke-width="1.8" stroke-linecap="round" stroke-linejoin="round">
    <path d="M15 4.5 19.5 9 8 20.5H3.5V16Z"/>
  </symbol>

  <symbol id="i-play-circle" viewBox="0 0 24 24" fill="none" stroke="currentColor" stroke-width="1.8" stroke-linecap="round" stroke-linejoin="round">
    <circle cx="12" cy="12" r="9"/>
    <path d="M10 9v6l5-3Z"/>
  </symbol>

  <symbol id="i-film" viewBox="0 0 24 24" fill="none" stroke="currentColor" stroke-width="1.8" stroke-linecap="round" stroke-linejoin="round">
    <rect x="3" y="5" width="18" height="14" rx="2"/>
    <path d="M7 5v14"/>
    <path d="M17 5v14"/>
    <path d="M3 10h4"/>
    <path d="M3 14h4"/>
    <path d="M17 10h4"/>
    <path d="M17 14h4"/>
  </symbol>

  <symbol id="i-zap" viewBox="0 0 24 24" fill="none" stroke="currentColor" stroke-width="1.8" stroke-linecap="round" stroke-linejoin="round">
    <path d="M12.5 2 4 13.5h6.5L11 22l8.5-11.5H13Z"/>
  </symbol>

  <symbol id="i-sort" viewBox="0 0 24 24" fill="none" stroke="currentColor" stroke-width="1.8" stroke-linecap="round" stroke-linejoin="round">
    <path d="M7 15V4"/>
    <path d="M4 12l3 3 3-3"/>
    <path d="M17 9V20"/>
    <path d="M20 12l-3-3-3 3"/>
  </symbol>

  <symbol id="i-note" viewBox="0 0 24 24" fill="none" stroke="currentColor" stroke-width="1.8" stroke-linecap="round" stroke-linejoin="round">
    <path d="M6.5 3.5h9L19 7v13a1 1 0 0 1-1 1H6.5a1 1 0 0 1-1-1v-15.5a1 1 0 0 1 1-1Z"/>
    <path d="M9 12h6"/>
    <path d="M9 15.5h6"/>
  </symbol>

  <symbol id="i-flask" viewBox="0 0 24 24" fill="none" stroke="currentColor" stroke-width="1.8" stroke-linecap="round" stroke-linejoin="round">
    <path d="M9 3h6"/>
    <path d="M10 3v6.5L5.5 17a2.5 2.5 0 0 0 2.1 3.9h8.8a2.5 2.5 0 0 0 2.1-3.9L14 9.5V3"/>
    <path d="M7.5 14h9"/>
  </symbol>
</svg>
